<svg xmlns="http://www.w3.org/2000/svg" xmlns:xlink="http://www.w3.org/1999/xlink" aria-hidden="true" role="img" class="iconify iconify--lucide" width="1em" height="1em" preserveAspectRatio="xMidYMid meet" viewBox="0 0 24 24"><g fill="none" stroke="currentColor" stroke-linecap="round" stroke-linejoin="round" stroke-width="2"><circle cx="16" cy="4" r="1"></circle><path d="m18 19l1-7l-5.87.94M5 8l3-3l5.5 3l-2.21 3.1m-7.05 3.38c-.19.58-.27 1.2-.23 1.84a5 5 0 0 0 5.31 4.67c.65-.04 1.25-.2 1.8-.46"></path><path d="M13.76 17.52c.19-.58.27-1.2.23-1.84a5 5 0 0 0-5.31-4.67c-.65.04-1.25.2-1.8.46"></path></g></svg>