<svg xmlns="http://www.w3.org/2000/svg" xmlns:xlink="http://www.w3.org/1999/xlink" aria-hidden="true" role="img" class="iconify iconify--lucide" width="1em" height="1em" preserveAspectRatio="xMidYMid meet" viewBox="0 0 24 24"><path fill="none" stroke="currentColor" stroke-linecap="round" stroke-linejoin="round" stroke-width="2" d="M6 22V4c0-.27 0-.55.07-.82a1.477 1.477 0 0 1 1.1-1.11C7.46 2 8.73 2 9 2h7c.27 0 .55 0 .82.07a1.477 1.477 0 0 1 1.11 1.1c.07.28.07.56.07.83v18H6Zm-4-8v6c0 1.1.9 2 2 2h2V12H4c-.27 0-.55 0-.82.07c-.27.07-.52.2-.72.4c-.19.19-.32.44-.39.71A3.4 3.4 0 0 0 2 14Zm18.82-4.93A3.4 3.4 0 0 0 20 9h-2v13h2a2 2 0 0 0 2-2v-9c0-.28 0-.55-.07-.82c-.07-.27-.2-.52-.4-.72c-.19-.19-.44-.32-.71-.39ZM10 6h4m-4 4h4m-4 4h4m-4 4h4"></path></svg>