<svg xmlns="http://www.w3.org/2000/svg" xmlns:xlink="http://www.w3.org/1999/xlink" aria-hidden="true" role="img" class="iconify iconify--lucide" width="1em" height="1em" preserveAspectRatio="xMidYMid meet" viewBox="0 0 24 24"><path fill="none" stroke="currentColor" stroke-linecap="round" stroke-linejoin="round" stroke-width="2" d="M12 2v2M5.22 5.22l1.42 1.42M20 12h2m-6.03.5A4 4 0 0 0 9.5 8.88M13.63 22A3.3 3.3 0 0 0 17 18.79a3.3 3.3 0 0 0-3.38-3.22h-1.34A5.23 5.23 0 0 0 7.25 12A5.13 5.13 0 0 0 2 17c0 2.76 2.35 5 5.25 5h6.38zm3.73-15.36l1.42-1.42"></path></svg>