<svg xmlns="http://www.w3.org/2000/svg" xmlns:xlink="http://www.w3.org/1999/xlink" aria-hidden="true" role="img" class="iconify iconify--lucide" width="1em" height="1em" preserveAspectRatio="xMidYMid meet" viewBox="0 0 24 24"><path fill="none" stroke="currentColor" stroke-linecap="round" stroke-linejoin="round" stroke-width="2" d="M18 3a3 3 0 0 0-3 3v12a3 3 0 0 0 3 3a3 3 0 0 0 3-3a3 3 0 0 0-3-3H6a3 3 0 0 0-3 3a3 3 0 0 0 3 3a3 3 0 0 0 3-3V6a3 3 0 0 0-3-3a3 3 0 0 0-3 3a3 3 0 0 0 3 3h12a3 3 0 0 0 3-3a3 3 0 0 0-3-3z"></path></svg>