<svg xmlns="http://www.w3.org/2000/svg" xmlns:xlink="http://www.w3.org/1999/xlink" aria-hidden="true" role="img" class="iconify iconify--lucide" width="1em" height="1em" preserveAspectRatio="xMidYMid meet" viewBox="0 0 24 24"><g fill="none" stroke="currentColor" stroke-linecap="round" stroke-linejoin="round" stroke-width="2"><path d="M15.5 2H8.6c-.4 0-.8.2-1.1.5c-.3.3-.5.7-.5 1.1v12.8c0 .4.2.8.5 1.1c.3.3.7.5 1.1.5h9.8c.4 0 .8-.2 1.1-.5c.3-.3.5-.7.5-1.1V6.5L15.5 2z"></path><path d="M3 7.6v12.8c0 .4.2.8.5 1.1c.3.3.7.5 1.1.5h9.8M15 2v5h5"></path></g></svg>