<svg xmlns="http://www.w3.org/2000/svg" xmlns:xlink="http://www.w3.org/1999/xlink" aria-hidden="true" role="img" class="iconify iconify--lucide" width="1em" height="1em" preserveAspectRatio="xMidYMid meet" viewBox="0 0 24 24"><g fill="none" stroke="currentColor" stroke-linecap="round" stroke-linejoin="round" stroke-width="2"><path d="M15 21v-4a2 2 0 0 1 2-2h4M7 4v2a3 3 0 0 0 3 2h0a2 2 0 0 1 2 2a2 2 0 0 0 4 0a2 2 0 0 1 2-2h3M3 11h2a2 2 0 0 1 2 2v1a2 2 0 0 0 2 2a2 2 0 0 1 2 2v4"></path><circle cx="12" cy="12" r="10"></circle></g></svg>