<svg xmlns="http://www.w3.org/2000/svg" xmlns:xlink="http://www.w3.org/1999/xlink" aria-hidden="true" role="img" class="iconify iconify--lucide" width="1em" height="1em" preserveAspectRatio="xMidYMid meet" viewBox="0 0 24 24"><g fill="none" stroke="currentColor" stroke-linecap="round" stroke-linejoin="round" stroke-width="2"><path d="M6 20h0a2 2 0 0 1-2-2V8a2 2 0 0 1 2-2h12a2 2 0 0 1 2 2v10a2 2 0 0 1-2 2h0"></path><path d="M8 18V4a2 2 0 0 1 2-2h4a2 2 0 0 1 2 2v14m-6 2h4"></path><circle cx="16" cy="20" r="2"></circle><circle cx="8" cy="20" r="2"></circle></g></svg>