<svg xmlns="http://www.w3.org/2000/svg" xmlns:xlink="http://www.w3.org/1999/xlink" aria-hidden="true" role="img" class="iconify iconify--lucide" width="1em" height="1em" preserveAspectRatio="xMidYMid meet" viewBox="0 0 24 24"><path fill="none" stroke="currentColor" stroke-linecap="round" stroke-linejoin="round" stroke-width="2" d="m2 22l1-1h3l9-9M3 21v-3l9-9m9.37-3.37a2.12 2.12 0 0 0-3-3l-2.79 2.79a1.05 1.05 0 0 1-1.5 0a1.07 1.07 0 0 0-1.5 0l-1.33 1.33a1.07 1.07 0 0 0 0 1.5l4.5 4.5a1.07 1.07 0 0 0 1.5 0l1.33-1.33a1.07 1.07 0 0 0 0-1.5a1.05 1.05 0 0 1 0-1.5Z"></path></svg>