<svg xmlns="http://www.w3.org/2000/svg" xmlns:xlink="http://www.w3.org/1999/xlink" aria-hidden="true" role="img" class="iconify iconify--lucide" width="1em" height="1em" preserveAspectRatio="xMidYMid meet" viewBox="0 0 24 24"><g fill="none" stroke="currentColor" stroke-linecap="round" stroke-linejoin="round" stroke-width="2"><circle cx="12" cy="12" r="2"></circle><path d="M4.93 19.07a10 10 0 0 1 0-14.14m2.83 11.31a6 6 0 0 1-1.3-1.95a6 6 0 0 1 0-4.59a6 6 0 0 1 1.3-1.95m8.48.01a6 6 0 0 1 1.3 2a6 6 0 0 1 0 4.59a6 6 0 0 1-1.3 1.95m2.83-11.37a10 10 0 0 1 0 14.14"></path></g></svg>