<svg xmlns="http://www.w3.org/2000/svg" xmlns:xlink="http://www.w3.org/1999/xlink" aria-hidden="true" role="img" class="iconify iconify--lucide" width="1em" height="1em" preserveAspectRatio="xMidYMid meet" viewBox="0 0 24 24"><g fill="none" stroke="currentColor" stroke-linecap="round" stroke-linejoin="round" stroke-width="2"><path d="M20 9V6a2 2 0 0 0-2-2H6a2 2 0 0 0-2 2v3"></path><path d="M2 11v5a2 2 0 0 0 2 2h16a2 2 0 0 0 2-2v-5a2 2 0 0 0-4 0v2H6v-2a2 2 0 0 0-4 0Zm2 7v2m16-2v2M12 4v9"></path></g></svg>