<svg xmlns="http://www.w3.org/2000/svg" xmlns:xlink="http://www.w3.org/1999/xlink" aria-hidden="true" role="img" class="iconify iconify--lucide" width="1em" height="1em" preserveAspectRatio="xMidYMid meet" viewBox="0 0 24 24"><path fill="none" stroke="currentColor" stroke-linecap="round" stroke-linejoin="round" stroke-width="2" d="M2 6c.6.5 1.2 1 2.5 1C7 7 7 5 9.5 5c1.3 0 1.9.5 2.5 1M2 18c.6.5 1.2 1 2.5 1c2.5 0 2.5-2 5-2c1.3 0 1.9.5 2.5 1M2 12c.6.5 1.2 1 2.5 1c2.5 0 2.5-2 5-2c1.3 0 1.9.5 2.5 1m0-6c.6.5 1.2 1 2.5 1c2.5 0 2.5-2 5-2c1.3 0 1.9.5 2.5 1M12 18c.6.5 1.2 1 2.5 1c2.5 0 2.5-2 5-2c1.3 0 1.9.5 2.5 1m-10-6c.6.5 1.2 1 2.5 1c2.5 0 2.5-2 5-2c1.3 0 1.9.5 2.5 1"></path></svg>