<svg xmlns="http://www.w3.org/2000/svg" xmlns:xlink="http://www.w3.org/1999/xlink" aria-hidden="true" role="img" class="iconify iconify--lucide" width="1em" height="1em" preserveAspectRatio="xMidYMid meet" viewBox="0 0 24 24"><g fill="none" stroke="currentColor" stroke-linecap="round" stroke-linejoin="round" stroke-width="2"><path d="M12 19c-2.3 0-6.4-.2-8.1-.6c-.7-.2-1.2-.7-1.4-1.4c-.3-1.1-.5-3.4-.5-5s.2-3.9.5-5c.2-.7.7-1.2 1.4-1.4C5.6 5.2 9.7 5 12 5s6.4.2 8.1.6c.7.2 1.2.7 1.4 1.4c.3 1.1.5 3.4.5 5s-.2 3.9-.5 5c-.2.7-.7 1.2-1.4 1.4c-1.7.4-5.8.6-8.1.6c0 0 0 0 0 0z"></path><path d="m10 15l5-3l-5-3z"></path></g></svg>